<svg width="331" height="95" viewBox="0 0 331 95" fill="none" xmlns="http://www.w3.org/2000/svg">
<path d="M65.4901 26.7344H49.9361C49.652 24.7221 49.072 22.9347 48.196 21.3722C47.3201 19.786 46.1956 18.4366 44.8224 17.3239C43.4493 16.2112 41.8632 15.3589 40.0639 14.767C38.2884 14.1752 36.3589 13.8793 34.2756 13.8793C30.5114 13.8793 27.2325 14.8144 24.4389 16.6847C21.6454 18.5312 19.4792 21.2301 17.9403 24.7812C16.4015 28.3087 15.6321 32.5937 15.6321 37.6364C15.6321 42.821 16.4015 47.1771 17.9403 50.7045C19.5028 54.232 21.6809 56.8954 24.4744 58.6946C27.268 60.4938 30.4995 61.3935 34.169 61.3935C36.2287 61.3935 38.1345 61.1212 39.8864 60.5767C41.6619 60.0322 43.2363 59.2391 44.6094 58.1974C45.9825 57.1321 47.1188 55.8419 48.0185 54.3267C48.9418 52.8116 49.581 51.0833 49.9361 49.142L65.4901 49.2131C65.0876 52.5511 64.0814 55.7708 62.4716 58.8722C60.8854 61.9498 58.7429 64.7079 56.044 67.1463C53.3688 69.5611 50.1728 71.4787 46.456 72.8991C42.7628 74.2959 38.5843 74.9943 33.9205 74.9943C27.4337 74.9943 21.6335 73.5265 16.5199 70.5909C11.4299 67.6553 7.4053 63.4058 4.44602 57.8423C1.51042 52.2789 0.0426137 45.5436 0.0426137 37.6364C0.0426137 29.7055 1.53409 22.9583 4.51705 17.3949C7.5 11.8314 11.5483 7.59375 16.6619 4.68182C21.7756 1.74621 27.5284 0.278406 33.9205 0.278406C38.1345 0.278406 42.0407 0.870263 45.6392 2.05398C49.2614 3.23769 52.4692 4.96591 55.2628 7.23863C58.0563 9.48769 60.3291 12.2457 62.081 15.5128C63.8565 18.7798 64.9929 22.5204 65.4901 26.7344ZM76.2322 74V19.4545H90.8984V28.9716H91.4666C92.4609 25.5862 94.13 23.0294 96.4737 21.3011C98.8175 19.5492 101.516 18.6733 104.57 18.6733C105.328 18.6733 106.145 18.7206 107.021 18.8153C107.897 18.91 108.666 19.0402 109.329 19.206V32.6293C108.619 32.4162 107.636 32.2268 106.381 32.0611C105.127 31.8954 103.978 31.8125 102.937 31.8125C100.711 31.8125 98.7228 32.2978 96.9709 33.2685C95.2427 34.2154 93.8696 35.5412 92.8516 37.2457C91.8572 38.9503 91.3601 40.9152 91.3601 43.1406V74H76.2322ZM128.15 94.4545C126.232 94.4545 124.433 94.3007 122.752 93.9929C121.095 93.7088 119.722 93.3419 118.633 92.892L122.042 81.5994C123.817 82.1439 125.415 82.4399 126.836 82.4872C128.28 82.5346 129.523 82.2031 130.565 81.4929C131.63 80.7827 132.494 79.5753 133.157 77.8707L134.045 75.5625L114.478 19.4545H130.387L141.68 59.5114H142.248L153.647 19.4545H169.663L148.462 79.8949C147.444 82.8305 146.059 85.3873 144.308 87.5653C142.579 89.767 140.389 91.4598 137.738 92.6435C135.086 93.8509 131.89 94.4545 128.15 94.4545ZM177.404 94.4545V19.4545H192.319V28.6165H192.994C193.656 27.1487 194.615 25.6572 195.87 24.142C197.148 22.6032 198.806 21.3248 200.842 20.3068C202.901 19.2652 205.458 18.7443 208.512 18.7443C212.489 18.7443 216.159 19.786 219.521 21.8693C222.882 23.929 225.569 27.0421 227.582 31.2088C229.594 35.3518 230.6 40.5483 230.6 46.7983C230.6 52.8826 229.618 58.0199 227.653 62.2102C225.711 66.3769 223.06 69.5374 219.698 71.6918C216.36 73.8224 212.62 74.8878 208.477 74.8878C205.541 74.8878 203.043 74.4025 200.984 73.4318C198.948 72.4612 197.279 71.242 195.977 69.7741C194.674 68.2827 193.68 66.7794 192.994 65.2642H192.532V94.4545H177.404ZM192.212 46.7273C192.212 49.9706 192.662 52.7997 193.562 55.2145C194.461 57.6293 195.763 59.5114 197.468 60.8608C199.173 62.1866 201.244 62.8494 203.683 62.8494C206.145 62.8494 208.228 62.1747 209.933 60.8253C211.637 59.4522 212.927 57.5582 213.803 55.1435C214.703 52.705 215.153 49.8996 215.153 46.7273C215.153 43.5786 214.715 40.8087 213.839 38.4176C212.963 36.0265 211.673 34.1562 209.968 32.8068C208.263 31.4574 206.168 30.7827 203.683 30.7827C201.22 30.7827 199.137 31.4337 197.433 32.7358C195.752 34.0379 194.461 35.8845 193.562 38.2756C192.662 40.6667 192.212 43.4839 192.212 46.7273ZM269.698 19.4545V30.8182H236.85V19.4545H269.698ZM244.308 6.38636H259.435V57.2386C259.435 58.6354 259.648 59.7244 260.075 60.5057C260.501 61.2633 261.093 61.7959 261.85 62.1037C262.631 62.4115 263.531 62.5653 264.549 62.5653C265.259 62.5653 265.969 62.5062 266.68 62.3878C267.39 62.2457 267.934 62.1392 268.313 62.0682L270.692 73.3253C269.935 73.562 268.87 73.8343 267.496 74.142C266.123 74.4735 264.454 74.6747 262.489 74.7457C258.844 74.8878 255.647 74.4025 252.901 73.2898C250.179 72.1771 248.06 70.4489 246.545 68.1051C245.03 65.7614 244.284 62.8021 244.308 59.2273V6.38636ZM303.612 75.0653C298.095 75.0653 293.325 73.8935 289.3 71.5497C285.299 69.1823 282.21 65.8916 280.032 61.6776C277.854 57.4399 276.765 52.5275 276.765 46.9403C276.765 41.3059 277.854 36.3816 280.032 32.1676C282.21 27.9299 285.299 24.6392 289.3 22.2955C293.325 19.928 298.095 18.7443 303.612 18.7443C309.128 18.7443 313.886 19.928 317.887 22.2955C321.912 24.6392 325.013 27.9299 327.191 32.1676C329.369 36.3816 330.458 41.3059 330.458 46.9403C330.458 52.5275 329.369 57.4399 327.191 61.6776C325.013 65.8916 321.912 69.1823 317.887 71.5497C313.886 73.8935 309.128 75.0653 303.612 75.0653ZM303.683 63.3466C306.192 63.3466 308.287 62.6364 309.968 61.2159C311.649 59.7718 312.915 57.8068 313.768 55.321C314.644 52.8352 315.082 50.0062 315.082 46.8338C315.082 43.6615 314.644 40.8324 313.768 38.3466C312.915 35.8608 311.649 33.8958 309.968 32.4517C308.287 31.0076 306.192 30.2855 303.683 30.2855C301.149 30.2855 299.019 31.0076 297.29 32.4517C295.586 33.8958 294.296 35.8608 293.42 38.3466C292.567 40.8324 292.141 43.6615 292.141 46.8338C292.141 50.0062 292.567 52.8352 293.42 55.321C294.296 57.8068 295.586 59.7718 297.29 61.2159C299.019 62.6364 301.149 63.3466 303.683 63.3466Z" fill="#55C2FF"/>
</svg>
